<?xml version="1.0" encoding="UTF-8"?>
<svg version="1.1" xmlns="http://www.w3.org/2000/svg" width="180" height="180">
<path d="M0 0 C59.4 0 118.8 0 180 0 C180 59.4 180 118.8 180 180 C120.6 180 61.2 180 0 180 C0 120.6 0 61.2 0 0 Z " fill="#B02021" transform="translate(0,0)"/>
<path d="M0 0 C1.30710937 -0.00386719 1.30710937 -0.00386719 2.640625 -0.0078125 C3.54296875 -0.00007813 4.4453125 0.00765625 5.375 0.015625 C6.27734375 0.00789063 7.1796875 0.00015625 8.109375 -0.0078125 C8.98078125 -0.00523438 9.8521875 -0.00265625 10.75 0 C11.93722656 0.00338379 11.93722656 0.00338379 13.1484375 0.00683594 C15.73027016 0.30691737 17.21663587 0.80981564 19.375 2.265625 C20.86035156 4.34326172 20.86035156 4.34326172 22.265625 6.9453125 C22.8028418 7.92435547 23.34005859 8.90339844 23.89355469 9.91210938 C24.46493164 10.97751953 25.03630859 12.04292969 25.625 13.140625 C26.86337004 15.3991032 28.10300508 17.65688812 29.34375 19.9140625 C29.66599548 20.50358704 29.98824097 21.09311157 30.32025146 21.70050049 C33.83601875 28.13081538 37.43185291 34.5148737 41.05651855 40.88433838 C42.11580714 42.74943904 43.16787557 44.61849038 44.21972656 46.48779297 C45.18604004 48.18766357 45.18604004 48.18766357 46.171875 49.921875 C47.02797363 51.43491211 47.02797363 51.43491211 47.90136719 52.97851562 C49.17126788 55.37611243 49.17126788 55.37611243 51.375 56.265625 C51.78335083 55.18849243 51.78335083 55.18849243 52.19995117 54.08959961 C53.36406596 51.29190258 54.69606443 48.72512496 56.17578125 46.08203125 C56.73467041 45.08196045 57.29355957 44.08188965 57.86938477 43.05151367 C58.46936279 41.98779541 59.06934082 40.92407715 59.6875 39.828125 C60.61550415 38.18130737 60.61550415 38.18130737 61.56225586 36.5012207 C63.49337632 33.08564184 65.43273539 29.67487757 67.375 26.265625 C67.98537109 25.19086914 68.59574219 24.11611328 69.22460938 23.00878906 C70.94971083 19.98280685 72.69036045 16.96642566 74.4375 13.953125 C74.96061768 13.03539307 75.48373535 12.11766113 76.02270508 11.17211914 C81.1282726 2.45515584 81.1282726 2.45515584 85.375 0.265625 C88.7485243 -0.25663295 92.03061896 -0.24802014 95.4375 -0.171875 C96.78424805 -0.18250977 96.78424805 -0.18250977 98.15820312 -0.19335938 C105.74680262 -0.12001232 105.74680262 -0.12001232 109.375 3.265625 C109.86719131 5.39953136 109.86719131 5.39953136 109.85601807 7.91630554 C109.86151672 8.87122894 109.86701538 9.82615234 109.87268066 10.81001282 C109.85829956 11.85586044 109.84391846 12.90170807 109.82910156 13.97924805 C109.82968567 15.0818396 109.83026978 16.18443115 109.83087158 17.32043457 C109.82807987 20.9730554 109.79693518 24.62486509 109.765625 28.27734375 C109.75816651 30.80653945 109.75247173 33.33574092 109.74847412 35.86494446 C109.73475038 41.84676458 109.7032099 47.82823532 109.66307616 53.80991536 C109.61837575 60.61997124 109.59637584 67.43004103 109.57629442 74.24020708 C109.53447739 88.24884155 109.46411463 102.25721729 109.375 116.265625 C105.26221445 118.56387891 101.49807576 118.63277597 96.875 118.640625 C96.11574219 118.66511719 95.35648437 118.68960938 94.57421875 118.71484375 C91.20507915 118.73254501 88.93228478 118.66951934 86.16107178 116.66107178 C83.78004468 113.46768181 83.85803677 111.4416619 83.82910156 107.47753906 C83.81876389 106.80395859 83.80842621 106.13037811 83.79777527 105.43638611 C83.76835994 103.21776303 83.76684849 101.0000527 83.765625 98.78125 C83.75064234 97.2399522 83.73391501 95.69867046 83.71551514 94.15740967 C83.6718383 90.10666159 83.65184202 86.05613007 83.63677979 82.00518799 C83.61720973 77.86921379 83.57523967 73.73347351 83.53515625 69.59765625 C83.45985064 61.48704037 83.40956156 53.37651634 83.375 45.265625 C81.33454604 48.87494948 79.29421624 52.48434414 77.25390625 56.09375 C76.68466431 57.10066895 76.11542236 58.10758789 75.52893066 59.14501953 C69.21154985 70.31760641 69.21154985 70.31760641 62.91641235 81.50273132 C58.97668227 88.46127345 58.97668227 88.46127345 55.375 90.265625 C52.9375 90.62890625 52.9375 90.62890625 50.375 90.578125 C49.529375 90.57425781 48.68375 90.57039063 47.8125 90.56640625 C45.06419657 90.22727265 43.69489575 89.78645162 41.375 88.265625 C39.57910156 85.59863281 39.57910156 85.59863281 37.765625 82.21875 C37.26986969 81.30727203 37.26986969 81.30727203 36.76409912 80.37738037 C35.70710888 78.42898404 34.66566126 76.4727832 33.625 74.515625 C32.59973288 72.61134924 31.57128074 70.70882135 30.5423584 68.80651855 C29.85824746 67.54037243 29.17603353 66.27319948 28.49572754 65.00500488 C25.70664876 59.82044722 22.79374334 54.7126322 19.79986572 49.64361572 C17.375 45.4812031 17.375 45.4812031 17.375 43.265625 C16.715 43.265625 16.055 43.265625 15.375 43.265625 C15.38166183 44.17573334 15.38832367 45.08584167 15.39518738 46.02352905 C15.45522252 54.58767386 15.50093563 63.15174831 15.53043652 71.71605492 C15.54611294 76.11938811 15.56738698 80.52254788 15.60131836 84.92578125 C15.63384175 89.17273291 15.65183811 93.41951746 15.65963173 97.66658401 C15.66518792 99.28937029 15.67603743 100.91214712 15.69219017 102.53486252 C15.71387178 104.8025791 15.71697091 107.06959931 15.71557617 109.33740234 C15.72223801 110.62979828 15.72889984 111.92219421 15.73576355 113.25375366 C15.61671158 114.2476712 15.49765961 115.24158875 15.375 116.265625 C12.32526315 118.2987829 11.68543132 118.5204758 8.25 118.53125 C7.46109375 118.53382813 6.6721875 118.53640625 5.859375 118.5390625 C5.03953125 118.53132813 4.2196875 118.52359375 3.375 118.515625 C2.14523438 118.52722656 2.14523438 118.52722656 0.890625 118.5390625 C0.10171875 118.53648437 -0.6871875 118.53390625 -1.5 118.53125 C-2.21929687 118.52899414 -2.93859375 118.52673828 -3.6796875 118.52441406 C-5.625 118.265625 -5.625 118.265625 -8.625 116.265625 C-8.99414349 114.23914909 -8.99414349 114.23914909 -8.98576355 111.69723511 C-8.98988754 110.73527222 -8.99401154 109.77330933 -8.9982605 108.78219604 C-8.98747467 107.7234024 -8.97668884 106.66460876 -8.96557617 105.57373047 C-8.96601425 104.46153137 -8.96645233 103.34933228 -8.96690369 102.20343018 C-8.96480722 98.51304807 -8.94143527 94.82311561 -8.91796875 91.1328125 C-8.91237586 88.5797653 -8.90810432 86.02671489 -8.90510559 83.47366333 C-8.89480646 77.43167523 -8.87114246 71.38988129 -8.84105712 65.34797108 C-8.80755144 58.47020667 -8.79103678 51.59243459 -8.77597082 44.71460891 C-8.74459381 30.5648576 -8.69180943 16.41525018 -8.625 2.265625 C-5.54983636 0.63978655 -3.49735091 0.00996802 0 0 Z " fill="#FCFBFB" transform="translate(41.625,32.734375)"/>
<path d="M0 0 C0.93457031 0.00322266 1.86914062 0.00644531 2.83203125 0.00976562 C3.80011719 0.01814453 4.76820313 0.02652344 5.765625 0.03515625 C6.74917969 0.03966797 7.73273438 0.04417969 8.74609375 0.04882812 C11.16933291 0.06059142 13.59244773 0.07702941 16.015625 0.09765625 C17.54605238 3.51488428 18.26535916 6.18468093 18.26286316 9.92396545 C18.26705765 10.86744339 18.27125214 11.81092133 18.27557373 12.7829895 C18.26714447 14.31752274 18.26714447 14.31752274 18.25854492 15.88305664 C18.26044327 16.96976151 18.26234161 18.05646637 18.26429749 19.17610168 C18.26800028 22.76591216 18.2573082 26.35552003 18.24609375 29.9453125 C18.24490159 32.43965125 18.24444886 34.93399045 18.2447052 37.42832947 C18.24294092 43.32372977 18.23156366 49.21905556 18.21620494 55.11443466 C18.20296394 60.48402378 18.20051907 65.85357182 18.2011711 71.22317511 C18.20178181 77.03827761 18.19656437 82.85335875 18.18837929 88.66845512 C18.18519389 91.1408418 18.18322551 93.61323035 18.18248558 96.08561897 C18.18032118 99.53766199 18.17157487 102.98962461 18.16088867 106.44165039 C18.16156845 107.97921997 18.16156845 107.97921997 18.16226196 109.54785156 C18.15799698 110.48850967 18.15373199 111.42916779 18.14933777 112.39833069 C18.14766192 113.21407594 18.14598608 114.02982119 18.14425945 114.87028599 C18.01549496 117.099908 17.75113041 118.98791642 17.015625 121.09765625 C14.45839271 122.3762724 12.64825398 122.21102234 9.7890625 122.1953125 C8.2421875 122.19047852 8.2421875 122.19047852 6.6640625 122.18554688 C5.04371094 122.17297852 5.04371094 122.17297852 3.390625 122.16015625 C1.75867188 122.15338867 1.75867188 122.15338867 0.09375 122.14648438 C-2.59901289 122.13467401 -5.29166688 122.11820403 -7.984375 122.09765625 C-9.046875 120.28515625 -9.046875 120.28515625 -9.984375 118.09765625 C-9.654375 117.10765625 -9.324375 116.11765625 -8.984375 115.09765625 C-8.4996875 115.75121094 -8.015 116.40476562 -7.515625 117.078125 C-3.98600782 119.89419303 -0.79327631 119.57475774 3.515625 119.41015625 C4.27488281 119.40048828 5.03414062 119.39082031 5.81640625 119.38085938 C9.36321926 119.30942619 12.60242913 119.04275382 16.015625 118.09765625 C15.95515198 103.39870355 15.87769603 88.6999229 15.77991009 74.0011692 C15.73490618 67.1765764 15.69550233 60.35203632 15.66918945 53.52734375 C15.64379961 46.94610423 15.6029262 40.36508036 15.55243874 33.78397751 C15.53570184 31.26809972 15.52423027 28.75218142 15.51801109 26.23625565 C15.50844407 22.7231699 15.4804737 19.2106918 15.44799805 15.69775391 C15.45015068 14.12358955 15.45015068 14.12358955 15.4523468 12.5176239 C15.43353958 11.0873008 15.43353958 11.0873008 15.41435242 9.62808228 C15.40974345 8.796625 15.40513449 7.96516773 15.40038586 7.10851479 C15.27341477 6.44493147 15.14644369 5.78134815 15.015625 5.09765625 C11.66442981 2.86352612 10.5978495 2.85917863 6.69140625 2.90234375 C5.66337891 2.90878906 4.63535156 2.91523437 3.57617188 2.921875 C2.50431641 2.93863281 1.43246094 2.95539062 0.328125 2.97265625 C-0.75533203 2.98167969 -1.83878906 2.99070313 -2.95507812 3 C-5.6317321 3.02358285 -8.30794297 3.05649499 -10.984375 3.09765625 C-7.73138296 -0.15533579 -4.44849407 -0.02712496 0 0 Z " fill="#8E4244" transform="translate(134.984375,30.90234375)"/>
<path d="M0 0 C0.33 0 0.66 0 1 0 C1.33 36.96 1.66 73.92 2 112 C4.27073079 113.1353654 5.54283279 113.12892412 8.0625 113.1328125 C8.85914063 113.13410156 9.65578125 113.13539063 10.4765625 113.13671875 C11.30929688 113.13285156 12.14203125 113.12898438 13 113.125 C13.83273438 113.12886719 14.66546875 113.13273437 15.5234375 113.13671875 C16.32007812 113.13542969 17.11671875 113.13414062 17.9375 113.1328125 C19.03384766 113.13112061 19.03384766 113.13112061 20.15234375 113.12939453 C22.09566053 113.11201795 22.09566053 113.11201795 24 112 C24.33 87.91 24.66 63.82 25 39 C25.66 39.33 26.32 39.66 27 40 C26.99666908 41.24574799 26.99666908 41.24574799 26.99327087 42.5166626 C26.97323148 50.34440369 26.95800722 58.17213616 26.94818783 65.999897 C26.94296988 70.02419377 26.93589196 74.04846934 26.92456055 78.07275391 C26.91369304 81.95660358 26.90771495 85.84043286 26.90512276 89.72429657 C26.90327548 91.20585196 26.89966825 92.68740624 26.89426994 94.16895294 C26.88700826 96.24449574 26.88601123 98.31995434 26.88647461 100.39550781 C26.88314369 102.16755585 26.88314369 102.16755585 26.87974548 103.97540283 C26.98133365 106.53051086 27.36014992 108.55395733 28 111 C27.21663631 113.42130596 26.51598918 114.63456128 24.43359375 116.109375 C20.90495523 117.40075475 17.45246567 117.21003896 13.75 117.125 C13.00492188 117.11597656 12.25984375 117.10695313 11.4921875 117.09765625 C9.66131941 117.07418358 7.83061762 117.03831525 6 117 C6 116.34 6 115.68 6 115 C5.21625 114.938125 4.4325 114.87625 3.625 114.8125 C1 114 1 114 -0.15560913 112.11006165 C-1.39758273 107.53562274 -1.21318684 103.14384017 -1.13525391 98.42651367 C-1.12579239 97.36264435 -1.11633087 96.29877502 -1.10658264 95.20266724 C-1.07294105 91.69092489 -1.02481512 88.17953821 -0.9765625 84.66796875 C-0.9503917 82.2313174 -0.92512498 79.79465619 -0.90072632 77.35798645 C-0.83411166 70.94800321 -0.75521055 64.53822767 -0.67376709 58.12841797 C-0.59281186 51.58634405 -0.52345358 45.04414838 -0.453125 38.50195312 C-0.31344587 25.66782401 -0.16118292 12.83387614 0 0 Z " fill="#A05F61" transform="translate(32,37)"/>
<path d="M0 0 C3.58050488 3.58050488 5.46387511 6.24419652 7.8125 10.625 C8.43769531 11.77226563 9.06289062 12.91953125 9.70703125 14.1015625 C10.13371094 15.05804688 10.56039062 16.01453125 11 17 C10.67 17.66 10.34 18.32 10 19 C9.66226563 18.4225 9.32453125 17.845 8.9765625 17.25 C8.30753906 16.13625 8.30753906 16.13625 7.625 15 C6.96371094 13.88625 6.96371094 13.88625 6.2890625 12.75 C5.65097656 11.88375 5.65097656 11.88375 5 11 C4.34 11 3.68 11 3 11 C3 29.81 3 48.62 3 68 C2.01 68 1.02 68 0 68 C0 45.56 0 23.12 0 0 Z " fill="#AE222B" transform="translate(58,77)"/>
<path d="M0 0 C0.33 0 0.66 0 1 0 C1 24.75 1 49.5 1 75 C0.34 75 -0.32 75 -1 75 C-1 55.53 -1 36.06 -1 16 C-1.66 16 -2.32 16 -3 16 C-3.33 15.34 -3.66 14.68 -4 14 C-4.99 14.33 -5.98 14.66 -7 15 C-8.22969878 18.51190809 -8.22969878 18.51190809 -9 22 C-9.66 22 -10.32 22 -11 22 C-11.268125 23.134375 -11.53625 24.26875 -11.8125 25.4375 C-12.204375 26.613125 -12.59625 27.78875 -13 29 C-13.99 29.33 -14.98 29.66 -16 30 C-14.55454275 26.1382097 -12.76719216 22.63274974 -10.7421875 19.04296875 C-10.11699219 17.93115234 -9.49179688 16.81933594 -8.84765625 15.67382812 C-8.1901709 14.51168099 -7.53261797 13.34957209 -6.875 12.1875 C-6.20935359 11.00601811 -5.54398616 9.824379 -4.87890625 8.64257812 C-3.25534066 5.76016095 -1.62894985 2.87937669 0 0 Z " fill="#991520" transform="translate(125,76)"/>
<path d="M0 0 C2.375 0.5625 2.375 0.5625 5 2 C5.73075648 4.3140622 6.40138258 6.64828869 7 9 C7.99 9.33 8.98 9.66 10 10 C10.33 12.64 10.66 15.28 11 18 C11.99 18.33 12.98 18.66 14 19 C14.33 20.98 14.66 22.96 15 25 C15.99 25 16.98 25 18 25 C19.36176581 26.98075027 20.69593116 28.98079663 22 31 C22.66 31 23.32 31 24 31 C24.06058594 31.67546875 24.12117188 32.3509375 24.18359375 33.046875 C24.26738281 33.93890625 24.35117188 34.8309375 24.4375 35.75 C24.51871094 36.63171875 24.59992188 37.5134375 24.68359375 38.421875 C24.96238465 40.69350452 25.38790577 42.79851823 26 45 C23.29626764 42.57490424 21.71131399 39.97007763 19.9609375 36.80078125 C19.38424316 35.76308594 18.80754883 34.72539063 18.21337891 33.65625 C17.30338135 32.00109375 17.30338135 32.00109375 16.375 30.3125 C15.11998667 28.048069 13.86477809 25.7837462 12.609375 23.51953125 C11.99642578 22.4104541 11.38347656 21.30137695 10.75195312 20.15869141 C8.03261071 15.25584133 5.26682686 10.37937592 2.48974609 5.5090332 C0 1.10968185 0 1.10968185 0 0 Z " fill="#8E3335" transform="translate(63,39)"/>
<path d="M0 0 C3.58050488 3.58050488 5.46387511 6.24419652 7.8125 10.625 C8.43769531 11.77226563 9.06289062 12.91953125 9.70703125 14.1015625 C10.13371094 15.05804688 10.56039062 16.01453125 11 17 C10.67 17.66 10.34 18.32 10 19 C9.60167969 18.28972656 9.20335938 17.57945313 8.79296875 16.84765625 C8.26316406 15.92855469 7.73335938 15.00945312 7.1875 14.0625 C6.40439453 12.68771484 6.40439453 12.68771484 5.60546875 11.28515625 C4.13859013 8.715938 4.13859013 8.715938 1 8 C1 27.8 1 47.6 1 68 C0.67 68 0.34 68 0 68 C0 45.56 0 23.12 0 0 Z " fill="#941A27" transform="translate(58,77)"/>
<path d="M0 0 C0.93457031 0.00322266 1.86914062 0.00644531 2.83203125 0.00976562 C3.80011719 0.01814453 4.76820313 0.02652344 5.765625 0.03515625 C6.74917969 0.03966797 7.73273438 0.04417969 8.74609375 0.04882812 C11.16933291 0.06059142 13.59244773 0.07702941 16.015625 0.09765625 C18.61166079 5.00676891 18.27046855 9.80926419 18.2109375 15.2109375 C18.2081076 16.18048874 18.20527771 17.15003998 18.20236206 18.14897156 C18.19119491 21.2361603 18.16609652 24.32305564 18.140625 27.41015625 C18.13059073 29.50715726 18.12146566 31.60416283 18.11328125 33.70117188 C18.09126688 38.83344585 18.05676071 43.96550135 18.015625 49.09765625 C17.685625 49.09765625 17.355625 49.09765625 17.015625 49.09765625 C17.0062793 47.81076904 16.99693359 46.52388184 16.98730469 45.19799805 C16.94746685 40.42860144 16.88172551 35.65985413 16.80810547 30.89086914 C16.77985978 28.82584975 16.75866322 26.76072151 16.74462891 24.69555664 C16.72324916 21.7287611 16.67662491 18.76327915 16.625 15.796875 C16.62377136 14.87178635 16.62254272 13.94669769 16.62127686 12.99357605 C16.61566692 8.11487275 16.61566692 8.11487275 14.31640625 4.00976562 C11.57503001 2.92298914 9.54320853 2.75552986 6.59375 2.8046875 C5.56894531 2.81435547 4.54414063 2.82402344 3.48828125 2.83398438 C1.89306641 2.87168945 1.89306641 2.87168945 0.265625 2.91015625 C-0.81332031 2.92369141 -1.89226562 2.93722656 -3.00390625 2.95117188 C-5.6645692 2.98649041 -8.32421796 3.03581426 -10.984375 3.09765625 C-7.73138296 -0.15533579 -4.44849407 -0.02712496 0 0 Z " fill="#8D2429" transform="translate(134.984375,30.90234375)"/>
<path d="M0 0 C0.99 0 1.98 0 3 0 C3 1.32 3 2.64 3 4 C3.99 4.33 4.98 4.66 6 5 C2.95026315 7.0331579 2.31043132 7.2548508 -1.125 7.265625 C-1.91390625 7.26820313 -2.7028125 7.27078125 -3.515625 7.2734375 C-4.33546875 7.26570312 -5.1553125 7.25796875 -6 7.25 C-6.81984375 7.25773438 -7.6396875 7.26546875 -8.484375 7.2734375 C-9.27328125 7.27085937 -10.0621875 7.26828125 -10.875 7.265625 C-11.59429687 7.26336914 -12.31359375 7.26111328 -13.0546875 7.25878906 C-15 7 -15 7 -18 5 C-17.67 4.01 -17.34 3.02 -17 2 C-15.8553125 2.495 -15.8553125 2.495 -14.6875 3 C-9.74825349 4.33945668 -5.08536891 4.16287658 0 4 C0 2.68 0 1.36 0 0 Z " fill="#FBE8E8" transform="translate(51,144)"/>
<path d="M0 0 C0.6496875 0.65355469 1.299375 1.30710938 1.96875 1.98046875 C5.97950379 4.65258178 8.80627313 4.49489871 13.5 4.3125 C14.61955078 4.29799805 14.61955078 4.29799805 15.76171875 4.28320312 C19.61777726 4.20471698 23.23597226 3.91860201 27 3 C27 3.99 27 4.98 27 6 C24.44276771 7.27861615 22.63262898 7.11336609 19.7734375 7.09765625 C18.7421875 7.09443359 17.7109375 7.09121094 16.6484375 7.08789062 C15.02808594 7.07532227 15.02808594 7.07532227 13.375 7.0625 C11.74304688 7.05573242 11.74304688 7.05573242 10.078125 7.04882812 C7.38536211 7.03701776 4.69270812 7.02054778 2 7 C0.5393715 4.35261084 0 3.10551666 0 0 Z " fill="#8E2A2C" transform="translate(125,146)"/>
<path d="M0 0 C3.82956378 4.39326125 6.48491627 9.2204054 9.25 14.3125 C9.70890625 15.14845703 10.1678125 15.98441406 10.640625 16.84570312 C11.76471849 18.89483188 12.88435756 20.94626165 14 23 C13.01 23.66 12.02 24.32 11 25 C6.79115463 19.85585566 4.79171296 15.03348857 2.89453125 8.671875 C2.06971217 5.82089925 2.06971217 5.82089925 0 3 C0 2.01 0 1.02 0 0 Z " fill="#912A2B" transform="translate(69,96)"/>
<path d="M0 0 C0.33 0 0.66 0 1 0 C1 1.98 1 3.96 1 6 C0.01 6.33 -0.98 6.66 -2 7 C-2.309375 8.093125 -2.61875 9.18625 -2.9375 10.3125 C-4.04462743 14.15488344 -4.91330313 15.56805701 -8 18 C-11.01490557 19.00496852 -13.04181692 19.10335303 -16.1875 19.0625 C-17.08855469 19.05347656 -17.98960938 19.04445313 -18.91796875 19.03515625 C-19.60503906 19.02355469 -20.29210937 19.01195313 -21 19 C-21.33 18.34 -21.66 17.68 -22 17 C-21.26394531 16.98582031 -20.52789062 16.97164062 -19.76953125 16.95703125 C-13.63095452 16.69434624 -13.63095452 16.69434624 -8.1875 14.125 C-5.04267594 9.6323942 -2.48781158 4.88158217 0 0 Z " fill="#842B27" transform="translate(108,106)"/>
<path d="M0 0 C0.33 0 0.66 0 1 0 C1.1875 2.3125 1.1875 2.3125 1 5 C0.02351983 6.02297922 -0.98131338 7.01904252 -2 8 C-3.142525 10.29019651 -4.05568695 12.61673372 -5 15 C-5.66 15 -6.32 15 -7 15 C-7.66 17.31 -8.32 19.62 -9 22 C-9.66 22 -10.32 22 -11 22 C-11.268125 23.134375 -11.53625 24.26875 -11.8125 25.4375 C-12.204375 26.613125 -12.59625 27.78875 -13 29 C-13.99 29.33 -14.98 29.66 -16 30 C-14.55454275 26.1382097 -12.76719216 22.63274974 -10.7421875 19.04296875 C-10.11699219 17.93115234 -9.49179688 16.81933594 -8.84765625 15.67382812 C-8.1901709 14.51168099 -7.53261797 13.34957209 -6.875 12.1875 C-6.20935359 11.00601811 -5.54398616 9.824379 -4.87890625 8.64257812 C-3.25534066 5.76016095 -1.62894985 2.87937669 0 0 Z " fill="#893233" transform="translate(125,76)"/>
<path d="M0 0 C0.598125 0.804375 1.19625 1.60875 1.8125 2.4375 C3.80947276 5.22327984 3.80947276 5.22327984 7 6 C7.06058594 6.67546875 7.12117188 7.3509375 7.18359375 8.046875 C7.26738281 8.93890625 7.35117188 9.8309375 7.4375 10.75 C7.51871094 11.63171875 7.59992188 12.5134375 7.68359375 13.421875 C7.96238465 15.69350452 8.38790577 17.79851823 9 20 C6.27078639 17.54944484 4.59992101 14.87837751 2.8125 11.6875 C2.28269531 10.76324219 1.75289063 9.83898437 1.20703125 8.88671875 C-0.12532289 5.70027957 -0.2272535 3.41890266 0 0 Z " fill="#98282B" transform="translate(80,64)"/>
<path d="M0 0 C0.33 0.66 0.66 1.32 1 2 C0.3190918 3.67993164 0.3190918 3.67993164 -0.80078125 5.66015625 C-1.20103516 6.37107422 -1.60128906 7.08199219 -2.01367188 7.81445312 C-2.44228516 8.55630859 -2.87089844 9.29816406 -3.3125 10.0625 C-3.72951172 10.80822266 -4.14652344 11.55394531 -4.57617188 12.32226562 C-7.73372024 17.86686012 -7.73372024 17.86686012 -10 19 C-10.36681223 11.54148472 -10.36681223 11.54148472 -8.6875 9.0625 C-7 8 -7 8 -4 7 C-3.67 5.02 -3.34 3.04 -3 1 C-2.01 0.67 -1.02 0.34 0 0 Z " fill="#8C2021" transform="translate(117,43)"/>
<path d="M0 0 C0.66 0 1.32 0 2 0 C0.34229667 4.49324849 -1.84982162 8.61186146 -4.125 12.8125 C-4.49753906 13.50537109 -4.87007813 14.19824219 -5.25390625 14.91210938 C-6.16690377 16.60934836 -7.08312716 18.30485138 -8 20 C-9.31538327 15.84228506 -8.34433068 13.1120703 -7 9 C-6.34 9 -5.68 9 -5 9 C-4.731875 8.443125 -4.46375 7.88625 -4.1875 7.3125 C-2.89100504 4.78774666 -1.57523677 2.36285516 0 0 Z " fill="#F9E9E7" transform="translate(114,92)"/>
<path d="M0 0 C0.66 0.66 1.32 1.32 2 2 C0.35 4.64 -1.3 7.28 -3 10 C-4.32 9.67 -5.64 9.34 -7 9 C-7 7.02 -7 5.04 -7 3 C-5.68 2.34 -4.36 1.68 -3 1 C-3.33 1.66 -3.66 2.32 -4 3 C-3.01 2.67 -2.02 2.34 -1 2 C-0.67 1.34 -0.34 0.68 0 0 Z " fill="#F4F2F0" transform="translate(121,79)"/>
<path d="M0 0 C0.66 0.66 1.32 1.32 2 2 C1.68134222 5.29279709 0.45484649 6.86535088 -2 9 C-1.67 9.66 -1.34 10.32 -1 11 C-5.75 14 -5.75 14 -8 14 C-8 13.34 -8 12.68 -8 12 C-7.34 12 -6.68 12 -6 12 C-5.7525 11.319375 -5.505 10.63875 -5.25 9.9375 C-3.75802092 6.43134917 -1.93164489 3.28379632 0 0 Z " fill="#F6E9E7" transform="translate(99,77)"/>
<path d="M0 0 C-2.57784846 2.64752004 -4.91648098 4.94432065 -8 7 C-8.66 6.67 -9.32 6.34 -10 6 C-10.103125 6.61875 -10.20625 7.2375 -10.3125 7.875 C-11 10 -11 10 -14 12 C-12.50948318 7.39294801 -10.21457741 4.53603516 -7 1 C-4.53721199 -0.231394 -2.7204945 -0.07159196 0 0 Z " fill="#F7E3E2" transform="translate(132,33)"/>
<path d="M0 0 C3.50584421 3.15603714 5.58994602 6.47935195 7.8125 10.625 C8.43769531 11.77226563 9.06289062 12.91953125 9.70703125 14.1015625 C10.13371094 15.05804688 10.56039062 16.01453125 11 17 C10.67 17.66 10.34 18.32 10 19 C9.60167969 18.31292969 9.20335938 17.62585938 8.79296875 16.91796875 C8.26316406 16.01691406 7.73335938 15.11585937 7.1875 14.1875 C6.66542969 13.29417969 6.14335938 12.40085937 5.60546875 11.48046875 C4.14138853 9.02023458 4.14138853 9.02023458 2.34375 7.375 C0.25976341 5.2425486 0.31935653 2.87420877 0 0 Z " fill="#7E2C2E" transform="translate(58,77)"/>
<path d="M0 0 C4.8333472 -0.08333357 9.23692563 0.04738513 14 1 C14 1.66 14 2.32 14 3 C9.38 3 4.76 3 0 3 C0 2.01 0 1.02 0 0 Z " fill="#B91B1E" transform="translate(128,153)"/>
<path d="M0 0 C2.31 0.33 4.62 0.66 7 1 C7.33 2.65 7.66 4.3 8 6 C6.68 6.99 5.36 7.98 4 9 C2.68 6.03 1.36 3.06 0 0 Z " fill="#F5EDE9" transform="translate(71,98)"/>
<path d="M0 0 C2.5625 2.0625 2.5625 2.0625 5 5 C4.8125 8.8125 4.8125 8.8125 4 12 C1.47650757 8.87567603 -0.27256146 5.61939504 -2 2 C-1.34 2 -0.68 2 0 2 C0 1.34 0 0.68 0 0 Z " fill="#F5E9E2" transform="translate(67,86)"/>
<path d="M0 0 C0.66 0.33 1.32 0.66 2 1 C1.67 2.32 1.34 3.64 1 5 C0.34 5 -0.32 5 -1 5 C-1 6.65 -1 8.3 -1 10 C-1.99 10.33 -2.98 10.66 -4 11 C-4 11.66 -4 12.32 -4 13 C-4.99 12.67 -5.98 12.34 -7 12 C-4.69 8.04 -2.38 4.08 0 0 Z " fill="#F5E6E0" transform="translate(117,45)"/>
<path d="M0 0 C2.61724095 2.36797991 4.32861729 4.89600354 6 8 C6 8.66 6 9.32 6 10 C5.01 9.67 4.02 9.34 3 9 C2.3125 6.9375 2.3125 6.9375 2 5 C0.68 5.99 -0.64 6.98 -2 8 C-1.125 2.25 -1.125 2.25 0 0 Z " fill="#F9E8E6" transform="translate(75,62)"/>
<path d="M0 0 C0.99 0 1.98 0 3 0 C3 0.66 3 1.32 3 2 C3.66 2 4.32 2 5 2 C5 2.99 5 3.98 5 5 C8.63 5.33 12.26 5.66 16 6 C16 6.33 16 6.66 16 7 C14.41705218 7.05437607 12.83355744 7.09296271 11.25 7.125 C10.36828125 7.14820312 9.4865625 7.17140625 8.578125 7.1953125 C5.83634728 6.98760207 4.28409305 6.50913291 2 5 C0.75 2.375 0.75 2.375 0 0 Z " fill="#F7D9D6" transform="translate(81,116)"/>
<path d="M0 0 C0.33 0.66 0.66 1.32 1 2 C1.66 2 2.32 2 3 2 C4.25664978 4.90600261 5 6.79604584 5 10 C5.66 10 6.32 10 7 10 C6.67 10.99 6.34 11.98 6 13 C2.95950199 9.35140239 1.03481238 5.2555467 -1 1 C-0.67 0.67 -0.34 0.34 0 0 Z " fill="#F8E6E7" transform="translate(59,74)"/>
<path d="M0 0 C0 0.99 0 1.98 0 3 C-6.27 3 -12.54 3 -19 3 C-19 2.67 -19 2.34 -19 2 C-18.01257813 1.93941406 -17.02515625 1.87882813 -16.0078125 1.81640625 C-14.72648438 1.73261719 -13.44515625 1.64882812 -12.125 1.5625 C-10.84882813 1.48128906 -9.57265625 1.40007812 -8.2578125 1.31640625 C-5.09392461 1.00912217 -3.1589095 0 0 0 Z " fill="#924C46" transform="translate(152,149)"/>
<path d="M0 0 C1.11375 0.4640625 1.11375 0.4640625 2.25 0.9375 C4.50692176 1.8094925 6.6450153 2.47667007 9 3 C8.67 4.32 8.34 5.64 8 7 C7.34 7 6.68 7 6 7 C6 6.34 6 5.68 6 5 C5.38125 4.9175 4.7625 4.835 4.125 4.75 C2 4 2 4 0.75 1.9375 C0.5025 1.298125 0.255 0.65875 0 0 Z " fill="#F5F0EB" transform="translate(78,111)"/>
<path d="M0 0 C0.66666667 2.66666667 1.33333333 5.33333333 2 8 C1.34 8 0.68 8 0 8 C-0.33 8.66 -0.66 9.32 -1 10 C-1 9.34 -1 8.68 -1 8 C-1.99 7.67 -2.98 7.34 -4 7 C-3.67 6.34 -3.34 5.68 -3 5 C-2.34 5 -1.68 5 -1 5 C-0.67 3.35 -0.34 1.7 0 0 Z " fill="#AA262F" transform="translate(117,93)"/>
<path d="M0 0 C0.66 0.99 1.32 1.98 2 3 C0.68 5.64 -0.64 8.28 -2 11 C-2.99 11 -3.98 11 -5 11 C-3.55049545 7.2089881 -1.84827434 3.6125362 0 0 Z " fill="#F5E1DD" transform="translate(105,66)"/>
<path d="M0 0 C0.66 0.33 1.32 0.66 2 1 C1.8125 3.375 1.8125 3.375 1 6 C-1.5625 7.3125 -1.5625 7.3125 -4 8 C-3.67 6.35 -3.34 4.7 -3 3 C-2.01 3 -1.02 3 0 3 C0 2.01 0 1.02 0 0 Z " fill="#A4212A" transform="translate(119,36)"/>
<path d="M0 0 C0 1.65 0 3.3 0 5 C-1.8125 6.0625 -1.8125 6.0625 -4 7 C-4.99 6.67 -5.98 6.34 -7 6 C-6.34 6 -5.68 6 -5 6 C-4.87625 5.195625 -4.7525 4.39125 -4.625 3.5625 C-4.41875 2.716875 -4.2125 1.87125 -4 1 C-2 0 -2 0 0 0 Z " fill="#F8ECE3" transform="translate(151,144)"/>
<path d="M0 0 C0.99 0 1.98 0 3 0 C3 1.32 3 2.64 3 4 C3.99 4.33 4.98 4.66 6 5 C4.35 5.33 2.7 5.66 1 6 C0 3 0 3 0 0 Z " fill="#F1F1ED" transform="translate(51,144)"/>
<path d="M0 0 C0.33 0 0.66 0 1 0 C1 1.98 1 3.96 1 6 C0.01 6.33 -0.98 6.66 -2 7 C-2.33 7.99 -2.66 8.98 -3 10 C-3.66 9.67 -4.32 9.34 -5 9 C-3.35 6.03 -1.7 3.06 0 0 Z " fill="#8E3237" transform="translate(108,106)"/>
<path d="M0 0 C0.33 0.66 0.66 1.32 1 2 C1.99 2 2.98 2 4 2 C3.39816251 4.02045442 2.72693904 6.02111039 2 8 C1.01 8.495 1.01 8.495 0 9 C0 6.03 0 3.06 0 0 Z " fill="#922329" transform="translate(97,71)"/>
<path d="M0 0 C0.99 0.33 1.98 0.66 3 1 C2.67 1.99 2.34 2.98 2 4 C3.98 4 5.96 4 8 4 C7.67 4.66 7.34 5.32 7 6 C4.03 5.505 4.03 5.505 1 5 C0.67 3.35 0.34 1.7 0 0 Z " fill="#FAEAEA" transform="translate(127,145)"/>
<path d="M0 0 C2.31 0 4.62 0 7 0 C7.33 1.65 7.66 3.3 8 5 C5.525 4.01 5.525 4.01 3 3 C3 2.34 3 1.68 3 1 C2.01 0.67 1.02 0.34 0 0 Z " fill="#962E34" transform="translate(144,31)"/>
<path d="M0 0 C0.99 0.66 1.98 1.32 3 2 C3 2.66 3 3.32 3 4 C1.02 4.33 -0.96 4.66 -3 5 C-3 3.68 -3 2.36 -3 1 C-2.01 0.67 -1.02 0.34 0 0 Z " fill="#AB2D2E" transform="translate(84,121)"/>
<path d="M0 0 C0.66 0 1.32 0 2 0 C0.7508258 3.45925163 -0.67527795 6.14693203 -3 9 C-3.33 8.01 -3.66 7.02 -4 6 C-2.1875 2.8125 -2.1875 2.8125 0 0 Z " fill="#F3E2DE" transform="translate(114,92)"/>
<path d="M0 0 C0.33 0.99 0.66 1.98 1 3 C1.66 3.33 2.32 3.66 3 4 C-1.75 7 -1.75 7 -4 7 C-4 6.34 -4 5.68 -4 5 C-3.34 5 -2.68 5 -2 5 C-1.34 3.35 -0.68 1.7 0 0 Z " fill="#EBD7D3" transform="translate(95,84)"/>
<path d="M0 0 C0.33 0 0.66 0 1 0 C1.36842105 4.54385965 1.36842105 4.54385965 -0.3125 6.625 C-0.869375 7.07875 -1.42625 7.5325 -2 8 C-2.556875 8.556875 -3.11375 9.11375 -3.6875 9.6875 C-4.120625 10.120625 -4.55375 10.55375 -5 11 C-3.77782954 6.95743617 -2.37245704 3.50711041 0 0 Z " fill="#6D2D33" transform="translate(125,76)"/>
<path d="M0 0 C0.66 0 1.32 0 2 0 C2.33 1.32 2.66 2.64 3 4 C1.35 5.32 -0.3 6.64 -2 8 C-2.33 7.34 -2.66 6.68 -3 6 C-2.06553465 3.96855359 -1.06775224 1.96466413 0 0 Z " fill="#F4E6E1" transform="translate(109,59)"/>
<path d="M0 0 C2.32472205 2.85306797 3.7508258 5.54074837 5 9 C4.01 9.495 4.01 9.495 3 10 C1.5393715 7.35261084 1 6.10551666 1 3 C0.34 2.67 -0.32 2.34 -1 2 C-0.67 1.34 -0.34 0.68 0 0 Z " fill="#F8E3E0" transform="translate(67,47)"/>
<path d="M0 0 C0.33 0.66 0.66 1.32 1 2 C0.06553465 4.03144641 -0.93224776 6.03533587 -2 8 C-2.33 8 -2.66 8 -3 8 C-3 5.69 -3 3.38 -3 1 C-2.01 0.67 -1.02 0.34 0 0 Z " fill="#832625" transform="translate(117,43)"/>
</svg>
